<?xml version="1.0" encoding="utf-8"?>
<!-- Generator: Adobe Illustrator 26.0.1, SVG Export Plug-In . SVG Version: 6.00 Build 0)  -->
<svg version="1.1" id="Layer_1" xmlns="http://www.w3.org/2000/svg" xmlns:xlink="http://www.w3.org/1999/xlink" x="0px" y="0px"
	 viewBox="0 0 1080 1080" style="enable-background:new 0 0 1080 1080;" xml:space="preserve">
<style type="text/css">
	.st0{fill:#3858F5;}
	.st1{fill:#FFFFFF;}
</style>
<rect x="-5" y="-5" class="st0" width="1090" height="1090"/>
<g>
	<path class="st1" d="M741.7,334.6c-27.2-25.8-60-46.6-97.4-61.8c-37.4-15.1-77.9-22.8-120.3-22.8H289.3v580h234.7
		c42.4,0,82.9-7.5,120.3-22.4c37.4-14.9,70.2-35.5,97.4-61.3c27.2-25.8,49.1-56.8,65-92c15.9-35.2,24-73,24-112.6
		c0-40.7-8.1-79.3-24-114.7C790.7,391.5,768.9,360.4,741.7,334.6z M675.6,607.6C667,628,655.1,646,640,661.1
		c-15.1,15.1-33.1,27-53.5,35.5c-20.5,8.5-42.6,12.8-65.9,12.8h-94v-339h94c23.3,0,45.5,4.5,65.9,13.3c20.5,8.8,38.5,21.1,53.5,36.4
		c15.1,15.3,27,33.6,35.5,54.4c8.5,20.7,12.8,43.3,12.8,67.1C688.4,564.9,684.1,587.1,675.6,607.6z"/>
</g>
</svg>
